<svg width="20" height="19" viewBox="0 0 20 19" fill="none" xmlns="http://www.w3.org/2000/svg">
<path opacity="0.5" d="M1.5 9.5C1.5 5.49306 1.5 3.48959 2.7448 2.2448C3.98959 1 5.99306 1 10 1C14.0069 1 16.0104 1 17.2552 2.2448C18.5 3.48959 18.5 5.49306 18.5 9.5M14.25 4.4V8.48646C14.25 9.31512 14.25 9.7295 14.1403 9.9766C13.8901 10.5398 13.273 10.8434 12.6742 10.6981C12.4114 10.6342 12.0831 10.3814 11.4265 9.87587C11.0558 9.59044 10.8704 9.44773 10.6775 9.36383C10.2453 9.17615 9.75469 9.17615 9.32255 9.36383C9.1296 9.44773 8.94422 9.59044 8.57353 9.87587C7.91691 10.3814 7.58861 10.6342 7.32582 10.6981C6.72701 10.8434 6.10991 10.5398 5.85977 9.9766C5.75 9.7295 5.75 9.31512 5.75 8.48646V4.4M11.7 4.4H8.3C5.91978 4.4 4.72967 4.4 3.82054 4.86322C3.02085 5.27068 2.37068 5.92085 1.96322 6.72054C1.5 7.62967 1.5 8.81974 1.5 11.2C1.5 13.5803 1.5 14.7703 1.96322 15.6795C2.37068 16.4792 3.02085 17.1293 3.82054 17.5367C4.72967 18 5.91978 18 8.3 18H11.7C14.0803 18 15.2703 18 16.1795 17.5367C16.9792 17.1293 17.6293 16.4792 18.0368 15.6795C18.5 14.7703 18.5 13.5803 18.5 11.2C18.5 8.81974 18.5 7.62967 18.0368 6.72054C17.6293 5.92085 16.9792 5.27068 16.1795 4.86322C15.2703 4.4 14.0803 4.4 11.7 4.4Z" stroke="white" stroke-width="2"/>
</svg>
