<svg width="18" height="22" viewBox="0 0 18 22" fill="none" xmlns="http://www.w3.org/2000/svg">
<path opacity="0.2" d="M3.12132 15.1022L2.86255 14.1363L2.8625 14.1363L3.12132 15.1022ZM5 5C4.44772 5 4 5.44771 4 6C4 6.55228 4.44772 7 5 7V5ZM13 7C13.5523 7 14 6.55228 14 6C14 5.44771 13.5523 5 13 5V7ZM5 8.5C4.44772 8.5 4 8.94771 4 9.5C4 10.0523 4.44772 10.5 5 10.5V8.5ZM10 10.5C10.5523 10.5 11 10.0523 11 9.5C11 8.94771 10.5523 8.5 10 8.5V10.5ZM11 15C11 14.4477 10.5523 14 10 14C9.44771 14 9 14.4477 9 15H11ZM9.9051 19L9.39891 18.1376L9.39852 18.1378L9.9051 19ZM9.4211 18.8708L9.85026 17.9676L9.85013 17.9675L9.4211 18.8708ZM8.1789 18.2808L8.60793 17.3775L8.60791 17.3775L8.1789 18.2808ZM7.8211 18.2808L7.39209 17.3775L7.39207 17.3775L7.8211 18.2808ZM6.57889 18.8708L6.14986 17.9675L6.14967 17.9676L6.57889 18.8708ZM6.09485 19L5.58846 19.8623L5.5885 19.8623L6.09485 19ZM7 15.45C7 14.8977 6.55228 14.45 6 14.45C5.44771 14.45 5 14.8977 5 15.45H7ZM2 7C2 5.55751 2.00212 4.57625 2.10092 3.84143C2.19584 3.13538 2.36322 2.80836 2.58579 2.58579L1.17157 1.17157C0.515465 1.82768 0.243496 2.64711 0.118752 3.57494C-0.00212371 4.474 0 5.61405 0 7H2ZM2.58579 2.58579C2.80836 2.36322 3.13538 2.19584 3.84143 2.10092C4.57625 2.00212 5.55752 2 7 2V0C5.61406 0 4.474 -0.00212371 3.57494 0.118752C2.64711 0.243496 1.82768 0.515464 1.17157 1.17157L2.58579 2.58579ZM7 2H11V0H7V2ZM11 2C12.4425 2 13.4237 2.00212 14.1585 2.10092C14.8646 2.19584 15.1916 2.36321 15.4142 2.58579L16.8284 1.17156C16.1723 0.515465 15.3529 0.243496 14.425 0.118752C13.526 -0.00212371 12.3859 0 11 0V2ZM15.4142 2.58579C15.6368 2.80837 15.8042 3.13539 15.8991 3.84143C15.9979 4.57625 16 5.55751 16 7H18C18 5.61405 18.0021 4.474 17.8812 3.57493C17.7565 2.6471 17.4845 1.82767 16.8284 1.17156L15.4142 2.58579ZM16 7V15H18V7H16ZM16 15C16 16.4425 15.9979 17.4237 15.8991 18.1585C15.8042 18.8646 15.6368 19.1916 15.4142 19.4142L16.8284 20.8284C17.4845 20.1723 17.7565 19.3529 17.8812 18.425C18.0021 17.526 18 16.3859 18 15H16ZM15.4142 19.4142C15.1916 19.6368 14.8646 19.8041 14.1585 19.8991C13.4237 19.9979 12.4425 20 11 20V22C12.3859 22 13.526 22.0021 14.425 21.8812C15.3529 21.7565 16.1723 21.4845 16.8284 20.8284L15.4142 19.4142ZM11 20H7V22H11V20ZM7 20C5.55752 20 4.57625 19.9979 3.84144 19.8991C3.13539 19.8041 2.80837 19.6368 2.5858 19.4142L1.17157 20.8284C1.82767 21.4845 2.6471 21.7565 3.57493 21.8812C4.474 22.0021 5.61406 22 7 22V20ZM2.5858 19.4142C2.36322 19.1916 2.19584 18.8646 2.10092 18.1585C2.00212 17.4237 2 16.4425 2 15H0C0 16.3859 -0.00212371 17.526 0.118752 18.425C0.243497 19.3529 0.515466 20.1723 1.17157 20.8284L2.5858 19.4142ZM2 15V7H0V15H2ZM16.8978 14H4.89778V16H16.8978V14ZM4.89778 14C4.03218 14 3.40324 13.9914 2.86255 14.1363L3.38008 16.0681C3.60239 16.0086 3.90344 16 4.89778 16V14ZM2.8625 14.1363C1.48211 14.5061 0.403944 15.5844 0.0340786 16.9647L1.96592 17.4823C2.15086 16.7922 2.68997 16.2531 3.38014 16.0681L2.8625 14.1363ZM5 7H13V5H5V7ZM5 10.5H10V8.5H5V10.5ZM9 15V18.5309H11V15H9ZM9 18.5309C9 18.604 8.99992 18.6489 8.99892 18.6844C8.99787 18.7216 8.99639 18.7174 9.00014 18.6934C9.0036 18.6713 9.01866 18.5821 9.07734 18.4719C9.14491 18.345 9.25282 18.2233 9.39891 18.1376L10.4113 19.8624C10.8391 19.6113 10.9454 19.1991 10.9761 19.0024C11.0029 18.831 11 18.6335 11 18.5309H9ZM9.39852 18.1378C9.54331 18.0527 9.69427 18.0212 9.82153 18.0207C9.9324 18.0202 10.0074 18.0432 10.0217 18.0476C10.0381 18.0527 10.0356 18.0532 9.99844 18.0368C9.96263 18.0209 9.91864 18.0001 9.85026 17.9676L8.99194 19.774C9.09282 19.822 9.26669 19.9073 9.42798 19.9574C9.60098 20.0112 10.0002 20.1039 10.4117 19.8622L9.39852 18.1378ZM9.85013 17.9675L8.60793 17.3775L7.74987 19.1841L8.99207 19.7741L9.85013 17.9675ZM8.60791 17.3775C8.60573 17.3765 8.32539 17.2182 8 17.2182V19.2182C7.86333 19.2182 7.76228 19.1849 7.72329 19.1703C7.70673 19.1641 7.69865 19.1601 7.70651 19.1637C7.71462 19.1674 7.72567 19.1726 7.74988 19.1841L8.60791 17.3775ZM8 17.2182C7.67461 17.2182 7.39427 17.3765 7.39209 17.3775L8.25011 19.1841C8.27433 19.1726 8.28537 19.1674 8.29349 19.1637C8.30135 19.1601 8.29327 19.1641 8.27671 19.1703C8.23772 19.1849 8.13667 19.2182 8 19.2182V17.2182ZM7.39207 17.3775L6.14986 17.9675L7.00792 19.7741L8.25013 19.1841L7.39207 17.3775ZM6.14967 17.9676C6.08132 18.0001 6.03734 18.0209 6.00155 18.0368C5.96445 18.0532 5.96194 18.0527 5.97829 18.0476C5.99261 18.0432 6.06763 18.0202 6.17845 18.0207C6.30564 18.0212 6.4565 18.0527 6.60119 18.1377L5.5885 19.8623C5.99982 20.1039 6.39887 20.0113 6.572 19.9575C6.73334 19.9073 6.90722 19.8219 7.00811 19.774L6.14967 17.9676ZM6.60123 18.1377C6.74735 18.2235 6.85522 18.3452 6.92275 18.4721C6.98137 18.5822 6.99641 18.6714 6.99986 18.6935C7.0036 18.7174 7.00213 18.7216 7.00108 18.6844C7.00008 18.6489 7 18.604 7 18.5309H5C5 18.6335 4.99706 18.8309 5.02385 19.0023C5.05457 19.1989 5.16074 19.6111 5.58846 19.8623L6.60123 18.1377ZM7 18.5309V15.45H5V18.5309H7Z" fill="#111111"/>
</svg>
