<svg width="36" height="36" viewBox="0 0 36 36" fill="none" xmlns="http://www.w3.org/2000/svg">
<circle cx="18" cy="18" r="18" fill="#B32B1C"/>
<path d="M19.888 11.6629L20.6295 10.9214C21.8581 9.69286 23.85 9.69286 25.0786 10.9214C26.3072 12.15 26.3072 14.1419 25.0786 15.3704L24.3371 16.1119M19.888 11.6629C19.888 11.6629 19.9808 13.2386 21.371 14.6289C22.7614 16.0192 24.3371 16.1119 24.3371 16.1119M19.888 11.6629L13.0711 18.4799C12.6093 18.9416 12.3785 19.1725 12.1799 19.4271C11.9458 19.7273 11.7449 20.0522 11.5812 20.396C11.4422 20.6874 11.339 20.9972 11.1325 21.6166L10.5 23M24.3371 16.1119L17.52 22.9289C17.0583 23.3906 16.8276 23.6215 16.573 23.8201C16.2727 24.0543 15.9477 24.2551 15.6039 24.4188C15.3126 24.5578 15.0029 24.661 14.3833 24.8675L13 25.5M10.5 23L10.0436 24.8834C9.94189 25.1881 10.0214 25.5242 10.2486 25.7514C10.4758 25.9786 10.8119 26.0581 11.1166 25.9564L13 25.5M10.5 23L13 25.5" stroke="white" stroke-width="1.5"/>
</svg>
