<svg width="22" height="22" viewBox="0 0 22 22" fill="none" xmlns="http://www.w3.org/2000/svg">
<path d="M6 2.5V1M16 2.5V1M1.5 7.5H20.5M1 10.5C1 6.72876 1 4.84315 2.17157 3.67157C3.34315 2.5 5.22876 2.5 9 2.5H13C16.7712 2.5 18.6569 2.5 19.8284 3.67157C21 4.84315 21 6.72876 21 10.5V12.5C21 16.2712 21 18.1569 19.8284 19.3284C18.6569 20.5 16.7712 20.5 13 20.5H9C5.22876 20.5 3.34315 20.5 2.17157 19.3284C1 18.1569 1 16.2712 1 12.5V10.5Z" stroke="#111111" stroke-width="2" stroke-linecap="round"/>
<path d="M17 15.5C17 16.0523 16.5523 16.5 16 16.5C15.4477 16.5 15 16.0523 15 15.5C15 14.9477 15.4477 14.5 16 14.5C16.5523 14.5 17 14.9477 17 15.5Z" fill="#111111"/>
<path d="M17 11.5C17 12.0523 16.5523 12.5 16 12.5C15.4477 12.5 15 12.0523 15 11.5C15 10.9477 15.4477 10.5 16 10.5C16.5523 10.5 17 10.9477 17 11.5Z" fill="#111111"/>
<path d="M12 15.5C12 16.0523 11.5523 16.5 11 16.5C10.4477 16.5 10 16.0523 10 15.5C10 14.9477 10.4477 14.5 11 14.5C11.5523 14.5 12 14.9477 12 15.5Z" fill="#111111"/>
<path d="M12 11.5C12 12.0523 11.5523 12.5 11 12.5C10.4477 12.5 10 12.0523 10 11.5C10 10.9477 10.4477 10.5 11 10.5C11.5523 10.5 12 10.9477 12 11.5Z" fill="#111111"/>
<path d="M7 15.5C7 16.0523 6.55228 16.5 6 16.5C5.44772 16.5 5 16.0523 5 15.5C5 14.9477 5.44772 14.5 6 14.5C6.55228 14.5 7 14.9477 7 15.5Z" fill="#111111"/>
<path d="M7 11.5C7 12.0523 6.55228 12.5 6 12.5C5.44772 12.5 5 12.0523 5 11.5C5 10.9477 5.44772 10.5 6 10.5C6.55228 10.5 7 10.9477 7 11.5Z" fill="#111111"/>
</svg>
