<svg width="19" height="18" viewBox="0 0 19 18" fill="none" xmlns="http://www.w3.org/2000/svg">
<g opacity="0.5">
<path d="M5.39749 2.23077V1M13.6026 2.23077V1M1.70518 6.33333H17.2949M1.29492 8.79487C1.29492 5.70052 1.29492 4.15335 2.25621 3.19206C3.21751 2.23077 4.76467 2.23077 7.85903 2.23077H11.1411C14.2354 2.23077 15.7826 2.23077 16.7439 3.19206C17.7052 4.15335 17.7052 5.70052 17.7052 8.79487V10.4359C17.7052 13.5302 17.7052 15.0775 16.7439 16.0387C15.7826 17 14.2354 17 11.1411 17H7.85903C4.76467 17 3.21751 17 2.25621 16.0387C1.29492 15.0775 1.29492 13.5302 1.29492 10.4359V8.79487Z" stroke="white" stroke-width="2" stroke-linecap="round"/>
<path d="M14.4233 12.8972C14.4233 13.3503 14.0559 13.7177 13.6027 13.7177C13.1496 13.7177 12.7822 13.3503 12.7822 12.8972C12.7822 12.444 13.1496 12.0767 13.6027 12.0767C14.0559 12.0767 14.4233 12.444 14.4233 12.8972Z" fill="white"/>
<path d="M14.4233 9.61543C14.4233 10.0686 14.0559 10.4359 13.6027 10.4359C13.1496 10.4359 12.7822 10.0686 12.7822 9.61543C12.7822 9.16227 13.1496 8.79492 13.6027 8.79492C14.0559 8.79492 14.4233 9.16227 14.4233 9.61543Z" fill="white"/>
<path d="M10.3207 12.8972C10.3207 13.3503 9.95337 13.7177 9.5002 13.7177C9.04703 13.7177 8.67969 13.3503 8.67969 12.8972C8.67969 12.444 9.04703 12.0767 9.5002 12.0767C9.95337 12.0767 10.3207 12.444 10.3207 12.8972Z" fill="white"/>
<path d="M10.3207 9.61543C10.3207 10.0686 9.95337 10.4359 9.5002 10.4359C9.04703 10.4359 8.67969 10.0686 8.67969 9.61543C8.67969 9.16227 9.04703 8.79492 9.5002 8.79492C9.95337 8.79492 10.3207 9.16227 10.3207 9.61543Z" fill="white"/>
<path d="M6.21915 12.8972C6.21915 13.3503 5.85179 13.7177 5.39864 13.7177C4.94548 13.7177 4.57812 13.3503 4.57812 12.8972C4.57812 12.444 4.94548 12.0767 5.39864 12.0767C5.85179 12.0767 6.21915 12.444 6.21915 12.8972Z" fill="white"/>
<path d="M6.21915 9.61543C6.21915 10.0686 5.85179 10.4359 5.39864 10.4359C4.94548 10.4359 4.57812 10.0686 4.57812 9.61543C4.57812 9.16227 4.94548 8.79492 5.39864 8.79492C5.85179 8.79492 6.21915 9.16227 6.21915 9.61543Z" fill="white"/>
</g>
</svg>
