<svg width="375" height="253" viewBox="0 0 375 253" fill="none" xmlns="http://www.w3.org/2000/svg">
<g clip-path="url(#clip0_152_225)">
<path fill-rule="evenodd" clip-rule="evenodd" d="M161.94 254.348V223.902L49.5808 111.818L8.89832 111.818L-52 172.716L-1.07241 223.636H39.6179L75.1818 188.072L34.4993 147.382L8.89832 172.716L24.2542 188.072L34.4993 177.827L44.4622 188.072L24.2542 208.272L-11.3097 172.716L34.4993 127.174L161.94 254.348Z" fill="#7B3500" fill-opacity="0.05"/>
<path fill-rule="evenodd" clip-rule="evenodd" d="M212.06 254.348V223.902L324.145 111.818H364.827L426 172.716L375.072 223.636H334.382L298.818 188.072L339.501 147.382L364.827 172.716L349.746 188.072L339.501 177.827L329.264 188.072L349.746 208.272L385.31 172.716L339.501 127.174L212.06 254.348Z" fill="#7B3500" fill-opacity="0.05"/>
<path fill-rule="evenodd" clip-rule="evenodd" d="M212.06 332.544V274.831L288.581 198.31L339.501 248.963V289.646L310.137 319.291L264.328 273.482L289.663 248.156L305.019 263.245L294.774 273.482L305.019 283.72L324.419 264.319L288.581 228.755L233.617 283.72V332.544H212.06Z" fill="#7B3500" fill-opacity="0.05"/>
<path fill-rule="evenodd" clip-rule="evenodd" d="M161.94 332.111V274.831L85.4191 198.31L34.4994 248.963V289.646L63.8629 319.291L109.672 273.482L84.3374 248.156L68.9815 263.245L79.2266 273.482L68.9815 283.72L49.5809 264.319L85.4191 228.755L140.384 283.72V332.111H161.94Z" fill="#7B3500" fill-opacity="0.05"/>
<path fill-rule="evenodd" clip-rule="evenodd" d="M197.778 332.544V217.977L314.181 101.573V60.8905L253.283 0L202.356 50.9276V91.3436L237.927 126.907L278.61 86.2171L253.283 60.8983L238.194 76.2464L248.439 86.4915L238.194 96.7287L217.719 76.5207L253.283 40.9568L299.092 86.7658L187 198.31L75.1816 86.4915L120.991 40.6825L156.554 76.2464L136.072 96.4544L125.835 86.2171L136.072 75.972L120.991 60.6161L95.6639 85.9428L136.346 126.625L171.91 91.0614V50.9276L120.991 0L59.8179 60.8905V101.573L176.222 217.977V332.544H197.778Z" fill="#7B3500" fill-opacity="0.05"/>
</g>
<defs>
<clipPath id="clip0_152_225">
<rect width="375" height="253" fill="white"/>
</clipPath>
</defs>
</svg>
