<svg width="37" height="36" viewBox="0 0 37 36" fill="none" xmlns="http://www.w3.org/2000/svg">
<path d="M15.6094 13.3125C15.6094 11.7592 16.9036 10.5 18.5 10.5C20.0964 10.5 21.3907 11.7592 21.3907 13.3125C21.3907 14.3437 20.8202 15.2452 19.9699 15.7348C19.237 16.1566 18.5 16.7965 18.5 17.625V19.5M33.9167 18C33.9167 26.2843 27.0144 33 18.5 33C9.98565 33 3.08337 26.2843 3.08337 18C3.08337 9.71573 9.98565 3 18.5 3C27.0144 3 33.9167 9.71573 33.9167 18Z" stroke="white" stroke-width="3" stroke-linecap="round"/>
<path d="M18.5417 26C19.3931 26 20.0833 25.3284 20.0833 24.5C20.0833 23.6716 19.3931 23 18.5417 23C17.6902 23 17 23.6716 17 24.5C17 25.3284 17.6902 26 18.5417 26Z" fill="white"/>
</svg>
