<?xml version="1.0" encoding="UTF-8"?>
<!DOCTYPE svg PUBLIC "-//W3C//DTD SVG 1.1//EN" "http://www.w3.org/Graphics/SVG/1.1/DTD/svg11.dtd">
<!-- Creator: CorelDRAW -->
<svg xmlns="http://www.w3.org/2000/svg" xml:space="preserve" width="100%" height="100%" version="1.1" shape-rendering="geometricPrecision" text-rendering="geometricPrecision" image-rendering="optimizeQuality" fill-rule="evenodd" clip-rule="evenodd"
viewBox="0 0 4139.69 2710.83"
 xmlns:xlink="http://www.w3.org/1999/xlink"
 xmlns:xodm="http://www.corel.com/coreldraw/odm/2003">
 <g id="Слой_x0020_1">
  <metadata id="CorelCorpID_0Corel-Layer"/>
  <path id="left.svg" fill="#B32B1C" fill-rule="nonzero" d="M4111.67 1197.74c9.38,0 16.33,16.44 21.07,49.09 4.63,28.02 6.95,60.67 6.95,98.06 0,42.03 -4.63,81.74 -14.01,119.14 -4.63,32.65 -11.69,48.97 -20.96,48.97l-3229.19 0 889.64 1141.82 6.95 14c0,14.01 -9.27,25.6 -28.02,34.97 -14.01,9.38 -25.7,9.38 -34.97,0l-1681.11 -1295.8c-18.75,-18.75 -28.02,-35.08 -28.02,-49.09 0,-14.01 9.27,-30.33 28.02,-49.09l1681.11 -1302.86 14.01 -6.95c9.27,0 18.64,9.38 28.02,28.02 14.01,14.01 18.64,23.38 14.01,28.02l-882.58 1141.7 3229.08 0z"/>
 </g>
</svg>
