<svg width="239" height="257" viewBox="0 0 239 257" fill="none" xmlns="http://www.w3.org/2000/svg">
<path fill-rule="evenodd" clip-rule="evenodd" d="M114.237 51.3728V45.2236L91.5428 22.585H83.3259L71.0258 34.8851L81.312 45.1697H89.5305L96.7136 37.9866L88.4967 29.7681L83.3259 34.8851L86.4274 37.9866L88.4967 35.9173L90.509 37.9866L86.4274 42.0666L79.2443 34.8851L88.4967 25.6865L114.237 51.3728Z" fill="#B32B1C"/>
<path fill-rule="evenodd" clip-rule="evenodd" d="M124.36 51.3728V45.2236L146.999 22.585H155.216L167.571 34.8851L157.285 45.1697H149.066L141.883 37.9866L150.1 29.7681L155.216 34.8851L152.169 37.9866L150.1 35.9173L148.032 37.9866L152.169 42.0666L159.353 34.8851L150.1 25.6865L124.36 51.3728Z" fill="#B32B1C"/>
<path fill-rule="evenodd" clip-rule="evenodd" d="M124.36 97.5408V55.5097L139.815 40.0542L150.1 50.285V58.502L144.169 64.4898L134.917 55.2374L140.034 50.122L143.135 53.1697L141.066 55.2374L143.135 57.3051L147.054 53.3866L139.815 46.2035L128.714 57.3051V96.5454L124.36 97.5408Z" fill="#B32B1C"/>
<path fill-rule="evenodd" clip-rule="evenodd" d="M114.237 98.0384V55.5097L98.7814 40.0542L88.4967 50.285V58.502L94.4275 64.4898L103.68 55.2374L98.5629 50.122L95.4613 53.1697L97.5306 55.2374L95.4613 57.3051L91.5428 53.3866L98.7814 46.2035L109.883 57.3051V96.5454L114.237 98.0384Z" fill="#B32B1C"/>
<path fill-rule="evenodd" clip-rule="evenodd" d="M121.475 99.5313V44.0264L144.986 20.5155V12.2985L132.686 0L122.4 10.2862V18.4494L129.584 25.6325L137.801 17.4139L132.686 12.3001L129.638 15.4001L131.707 17.4693L129.638 19.537L125.503 15.4555L132.686 8.27237L141.938 17.5248L119.298 40.0541L96.7134 17.4693L105.966 8.21696L113.149 15.4001L109.012 19.4816L106.944 17.4139L109.012 15.3447L105.966 12.2431L100.85 17.3585L109.067 25.5755L116.25 18.3924V10.2862L105.966 0L93.6102 12.2985V20.5155L117.121 44.0264V99.5313H121.475Z" fill="#B32B1C"/>
<path fill-rule="evenodd" clip-rule="evenodd" d="M104.805 127.289C104.805 126.069 104.361 125.071 103.474 124.184C102.697 123.408 101.588 122.853 100.368 122.853H60V117.973H100.479C103.03 117.973 105.248 118.972 106.912 120.635C108.575 122.299 109.573 124.628 109.573 127.067H104.805V127.289ZM177.889 122.964H137.41C136.19 122.964 135.192 123.408 134.305 124.295C133.528 125.071 132.974 126.18 132.974 127.4H128.094C128.094 124.849 129.092 122.631 130.756 120.968C132.419 119.304 134.748 118.306 137.188 118.306H177.667V122.964H177.889Z" fill="#B32B1C"/>
<path fill-rule="evenodd" clip-rule="evenodd" d="M62.4399 53.761H64.8797V67.5129V106.329H100.479C106.246 106.329 111.459 108.658 115.229 112.428C116.671 113.87 118.002 115.644 119 117.419C119.998 115.534 121.218 113.87 122.771 112.428C126.541 108.658 131.754 106.329 137.521 106.329H173.12V67.5129V53.761H178V111.208H137.521C133.085 111.208 129.092 112.983 126.209 115.977C123.325 118.861 121.44 122.964 121.44 127.289H116.56C116.56 122.853 114.786 118.861 111.791 115.977C108.908 113.094 104.805 111.208 100.479 111.208H60V53.761H62.4399Z" fill="#B32B1C"/>
<path fill-rule="evenodd" clip-rule="evenodd" d="M81.0717 48.7703H76.6356H71.645V53.7609V61.8567V66.9582V98.3436H99.8142C103.03 98.3436 106.247 98.8981 109.13 99.7853C112.124 100.783 115.008 102.225 117.559 104L119 104.998L120.442 104C122.993 102.225 125.876 100.783 128.871 99.7853C131.754 98.8981 134.859 98.3436 138.186 98.3436H166.245V66.9582V64.4075V61.8567V53.7609V48.7703H161.254H157.594V53.7609H161.254V61.8567V66.8473V93.2421H138.297C134.527 93.2421 130.867 93.7966 127.429 94.9056C124.434 95.9037 121.551 97.2345 119 98.8981C116.339 97.2345 113.566 95.9037 110.572 94.9056C107.134 93.7966 103.474 93.2421 99.7033 93.2421H76.9683V66.8473V61.8567V53.7609H81.0717V48.7703Z" fill="#B32B1C"/>
<path d="M1.88125 183.888C2.45725 183.867 2.89458 183.803 3.19325 183.696C3.49192 183.568 3.72658 183.312 3.89725 182.928C4.06792 182.544 4.15325 181.936 4.15325 181.104V168.848C4.15325 167.653 4.19592 166.693 4.28125 165.968L1.88125 166.064V163.6H18.8413L19.0013 169.808H16.9213C16.9213 168.229 16.5373 167.141 15.7693 166.544C15.0226 165.947 14.1053 165.659 13.0173 165.68L10.9373 165.712C10.4253 165.712 10.0199 165.776 9.72125 165.904C9.42258 166.032 9.18792 166.299 9.01725 166.704C8.86792 167.088 8.79325 167.685 8.79325 168.496V172.976L10.7133 172.912C13.3373 172.848 15.3746 173.104 16.8253 173.68C18.2759 174.235 19.2573 175.003 19.7693 175.984C20.2813 176.965 20.5373 178.139 20.5373 179.504C20.5373 181.573 19.8226 183.173 18.3933 184.304C16.9639 185.435 15.0866 186 12.7613 186H1.88125V183.888ZM8.66525 183.728C10.0733 183.728 11.1079 183.717 11.7693 183.696C13.0279 183.632 13.9666 183.216 14.5853 182.448C15.2039 181.68 15.5133 180.656 15.5133 179.376C15.5133 177.861 15.1186 176.795 14.3293 176.176C13.5613 175.536 12.5799 175.216 11.3853 175.216H10.0093C9.47592 175.216 9.07058 175.227 8.79325 175.248V180.912C8.79325 182.064 8.75058 183.003 8.66525 183.728ZM44.2735 180.752C44.2735 181.947 44.2308 182.907 44.1455 183.632C44.8282 183.568 45.6282 183.536 46.5455 183.536V186H37.3615V183.888C37.9375 183.867 38.3748 183.803 38.6735 183.696C38.9722 183.568 39.2068 183.312 39.3775 182.928C39.5482 182.544 39.6335 181.936 39.6335 181.104V170.864L30.4495 181.776C30.4282 182.203 30.3855 182.821 30.3215 183.632C31.0042 183.568 31.8042 183.536 32.7215 183.536V186H23.5375V183.888C24.1135 183.867 24.5508 183.803 24.8495 183.696C25.1482 183.568 25.3828 183.312 25.5535 182.928C25.7242 182.544 25.8095 181.936 25.8095 181.104V168.848C25.8095 167.653 25.8522 166.693 25.9375 165.968L23.5375 166.064V163.6H32.7215V165.712C32.1455 165.733 31.7082 165.808 31.4095 165.936C31.1108 166.043 30.8762 166.288 30.7055 166.672C30.5348 167.056 30.4495 167.664 30.4495 168.496V178.256L39.6655 167.408L39.7615 165.968L37.3615 166.064V163.6H46.5455V165.712C45.9695 165.733 45.5322 165.808 45.2335 165.936C44.9348 166.043 44.7002 166.288 44.5295 166.672C44.3588 167.056 44.2735 167.664 44.2735 168.496V180.752ZM50.2563 183.888C50.8323 183.867 51.2696 183.803 51.5683 183.696C51.8669 183.568 52.1016 183.312 52.2723 182.928C52.4429 182.544 52.5283 181.936 52.5283 181.104V168.848C52.5283 167.653 52.5709 166.693 52.6562 165.968L50.2563 166.064V163.6H67.2163L67.3763 169.808H65.2963C65.2963 168.229 64.9123 167.141 64.1443 166.544C63.3976 165.947 62.4803 165.659 61.3923 165.68L59.3123 165.712C58.8003 165.712 58.3949 165.776 58.0963 165.904C57.7976 166.032 57.5629 166.299 57.3923 166.704C57.2429 167.088 57.1683 167.685 57.1683 168.496V172.976L59.0883 172.912C61.7123 172.848 63.7496 173.104 65.2003 173.68C66.6509 174.235 67.6323 175.003 68.1443 175.984C68.6563 176.965 68.9123 178.139 68.9123 179.504C68.9123 181.573 68.1976 183.173 66.7683 184.304C65.3389 185.435 63.4616 186 61.1363 186H50.2563V183.888ZM57.0403 183.728C58.4483 183.728 59.4829 183.717 60.1443 183.696C61.4029 183.632 62.3416 183.216 62.9603 182.448C63.5789 181.68 63.8883 180.656 63.8883 179.376C63.8883 177.861 63.4936 176.795 62.7043 176.176C61.9363 175.536 60.9549 175.216 59.7603 175.216H58.3843C57.8509 175.216 57.4456 175.227 57.1683 175.248V180.912C57.1683 182.064 57.1256 183.003 57.0403 183.728ZM74.7925 186.512C73.6192 186.512 72.6912 186.267 72.0085 185.776C71.3258 185.264 70.9845 184.56 70.9845 183.664C70.9845 182.853 71.2085 182.181 71.6565 181.648C72.1045 181.115 72.7552 180.848 73.6085 180.848C74.3338 180.848 74.8672 181.04 75.2085 181.424C75.5712 181.808 75.7525 182.309 75.7525 182.928C75.7525 183.291 75.6672 183.589 75.4965 183.824C75.6032 183.888 75.7632 183.92 75.9765 183.92C76.4245 183.92 76.9258 183.408 77.4805 182.384C78.0565 181.339 78.5685 179.749 79.0165 177.616C79.4645 175.461 79.7312 172.816 79.8165 169.68L79.9125 165.968L76.2325 166.064V163.6H93.8965V165.712C93.3205 165.733 92.8832 165.808 92.5845 165.936C92.2858 166.043 92.0512 166.288 91.8805 166.672C91.7098 167.056 91.6245 167.664 91.6245 168.496V180.752C91.6245 182.181 91.5818 183.141 91.4965 183.632C92.2005 183.568 93.0005 183.536 93.8965 183.536V186H84.7125V183.888C85.2885 183.867 85.7258 183.803 86.0245 183.696C86.3232 183.568 86.5578 183.312 86.7285 182.928C86.8992 182.544 86.9845 181.936 86.9845 181.104V166L84.4245 166.096C83.6778 166.117 83.1338 166.267 82.7925 166.544C82.4725 166.821 82.3018 167.301 82.2805 167.984C82.1952 172.379 81.8005 175.952 81.0965 178.704C80.4138 181.456 79.5285 183.451 78.4405 184.688C77.3525 185.904 76.1365 186.512 74.7925 186.512ZM118.336 180.752C118.336 181.947 118.293 182.907 118.208 183.632C118.891 183.568 119.691 183.536 120.608 183.536V186H111.424V183.888C112 183.867 112.437 183.803 112.736 183.696C113.035 183.568 113.269 183.312 113.44 182.928C113.611 182.544 113.696 181.936 113.696 181.104V170.864L104.512 181.776C104.491 182.203 104.448 182.821 104.384 183.632C105.067 183.568 105.867 183.536 106.784 183.536V186H97.6V183.888C98.176 183.867 98.6133 183.803 98.912 183.696C99.2107 183.568 99.4453 183.312 99.616 182.928C99.7867 182.544 99.872 181.936 99.872 181.104V168.848C99.872 167.653 99.9147 166.693 100 165.968L97.6 166.064V163.6H106.784V165.712C106.208 165.733 105.771 165.808 105.472 165.936C105.173 166.043 104.939 166.288 104.768 166.672C104.597 167.056 104.512 167.664 104.512 168.496V178.256L113.728 167.408L113.824 165.968L111.424 166.064V163.6H120.608V165.712C120.032 165.733 119.595 165.808 119.296 165.936C118.997 166.043 118.763 166.288 118.592 166.672C118.421 167.056 118.336 167.664 118.336 168.496V180.752ZM134.696 163.088C137.149 163.088 139.208 163.675 140.872 164.848C142.557 166 143.805 167.472 144.616 169.264C145.426 171.056 145.832 172.901 145.832 174.8C145.832 176.656 145.405 178.491 144.552 180.304C143.698 182.096 142.418 183.579 140.712 184.752C139.026 185.925 136.989 186.512 134.6 186.512C132.04 186.512 129.928 185.947 128.264 184.816C126.6 183.685 125.384 182.235 124.616 180.464C123.848 178.693 123.464 176.805 123.464 174.8C123.464 172.901 123.89 171.056 124.744 169.264C125.597 167.472 126.866 166 128.552 164.848C130.258 163.675 132.306 163.088 134.696 163.088ZM134.44 165.424C133.032 165.424 131.88 165.872 130.984 166.768C130.088 167.664 129.448 168.795 129.064 170.16C128.68 171.525 128.488 172.944 128.488 174.416C128.488 175.909 128.701 177.403 129.128 178.896C129.554 180.389 130.248 181.648 131.208 182.672C132.189 183.675 133.426 184.176 134.92 184.176C136.306 184.176 137.437 183.739 138.312 182.864C139.186 181.989 139.816 180.88 140.2 179.536C140.584 178.192 140.776 176.795 140.776 175.344C140.776 172.315 140.242 169.904 139.176 168.112C138.109 166.32 136.53 165.424 134.44 165.424ZM167.694 170.832H165.582C165.582 169.147 165.23 167.877 164.526 167.024C163.843 166.149 162.883 165.723 161.646 165.744H160.11V180.752C160.11 182.181 160.067 183.141 159.982 183.632C160.686 183.568 161.539 183.536 162.542 183.536V186H153.198V183.888C153.774 183.867 154.211 183.803 154.51 183.696C154.808 183.568 155.043 183.312 155.214 182.928C155.384 182.544 155.47 181.936 155.47 181.104V165.776H153.998C152.739 165.797 151.768 166.224 151.086 167.056C150.403 167.888 150.062 169.147 150.062 170.832H147.95L148.11 163.6H167.502L167.694 170.832ZM186.542 169.808H184.43C184.43 168.229 184.046 167.141 183.278 166.544C182.531 165.925 181.625 165.637 180.558 165.68L179.406 165.712C178.894 165.733 178.489 165.808 178.19 165.936C177.891 166.043 177.657 166.299 177.486 166.704C177.337 167.109 177.262 167.707 177.262 168.496V173.296H181.006C180.985 172.933 180.942 172.005 180.878 170.512H183.342V178.288H181.23C181.23 177.435 181.091 176.805 180.814 176.4C180.558 175.995 180.217 175.739 179.79 175.632C179.363 175.504 178.798 175.451 178.094 175.472L177.262 175.504V180.752C177.262 181.904 177.219 182.843 177.134 183.568H181.422C182.51 183.568 183.427 183.205 184.174 182.48C184.942 181.733 185.326 180.56 185.326 178.96H187.406L187.246 186H170.35V183.888C170.926 183.867 171.363 183.803 171.662 183.696C171.961 183.568 172.195 183.312 172.366 182.928C172.537 182.544 172.622 181.936 172.622 181.104V168.848C172.622 167.653 172.665 166.693 172.75 165.968L170.35 166.064V163.6H186.35L186.542 169.808ZM210.499 165.712C209.581 165.755 208.717 165.989 207.907 166.416C207.117 166.843 206.328 167.696 205.539 168.976L202.467 173.904V173.936C203.277 174.427 203.949 175.045 204.483 175.792L207.779 180.432C209.357 182.672 210.755 183.824 211.971 183.888V186H207.043C206.808 185.979 206.339 185.605 205.635 184.88C204.952 184.133 204.376 183.419 203.907 182.736L200.739 178.128C200.44 177.701 200.12 177.275 199.779 176.848C199.437 176.421 199.139 176.112 198.883 175.92H197.731V180.752C197.731 181.947 197.688 182.907 197.603 183.632C198.285 183.568 199.085 183.536 200.003 183.536V186H190.819V183.888C191.395 183.867 191.832 183.803 192.131 183.696C192.429 183.568 192.664 183.312 192.835 182.928C193.005 182.544 193.091 181.936 193.091 181.104V168.848C193.091 167.653 193.133 166.693 193.219 165.968L190.819 166.064V163.6H200.003V165.712C199.427 165.733 198.989 165.808 198.691 165.936C198.392 166.043 198.157 166.288 197.987 166.672C197.816 167.056 197.731 167.664 197.731 168.496V173.36H200.035L202.499 169.168C203.523 167.376 204.248 166.309 204.675 165.968V165.936C204.205 165.979 203.8 166.011 203.459 166.032C203.117 166.032 202.851 166.043 202.659 166.064V163.6H210.499V165.712ZM234.836 180.752C234.836 181.947 234.793 182.907 234.708 183.632C235.391 183.568 236.191 183.536 237.108 183.536V186H227.924V183.888C228.5 183.867 228.937 183.803 229.236 183.696C229.535 183.568 229.769 183.312 229.94 182.928C230.111 182.544 230.196 181.936 230.196 181.104V170.864L221.012 181.776C220.991 182.203 220.948 182.821 220.884 183.632C221.567 183.568 222.367 183.536 223.284 183.536V186H214.1V183.888C214.676 183.867 215.113 183.803 215.412 183.696C215.711 183.568 215.945 183.312 216.116 182.928C216.287 182.544 216.372 181.936 216.372 181.104V168.848C216.372 167.653 216.415 166.693 216.5 165.968L214.1 166.064V163.6H223.284V165.712C222.708 165.733 222.271 165.808 221.972 165.936C221.673 166.043 221.439 166.288 221.268 166.672C221.097 167.056 221.012 167.664 221.012 168.496V178.256L230.228 167.408L230.324 165.968L227.924 166.064V163.6H237.108V165.712C236.532 165.733 236.095 165.808 235.796 165.936C235.497 166.043 235.263 166.288 235.092 166.672C234.921 167.056 234.836 167.664 234.836 168.496V180.752ZM29.2433 213.752C29.2433 214.947 29.2006 215.907 29.1153 216.632C29.7979 216.568 30.5979 216.536 31.5153 216.536V219H22.3313V216.888C22.9073 216.867 23.3446 216.803 23.6433 216.696C23.9419 216.568 24.1766 216.312 24.3473 215.928C24.5179 215.544 24.6033 214.936 24.6033 214.104V209.08C22.5979 210.275 20.6566 210.872 18.7793 210.872C14.5766 210.872 12.4646 208.6 12.4433 204.056V201.848C12.4433 200.419 12.4859 199.459 12.5713 198.968L10.1713 199.064V196.6H19.3553V198.712C18.7793 198.733 18.3419 198.808 18.0433 198.936C17.7446 199.043 17.5099 199.288 17.3393 199.672C17.1686 200.056 17.0833 200.664 17.0833 201.496V203.96C17.1046 205.283 17.4139 206.253 18.0113 206.872C18.6299 207.491 19.5686 207.8 20.8273 207.8C21.6806 207.8 22.3846 207.704 22.9393 207.512C23.4939 207.299 24.0486 207 24.6033 206.616V201.848C24.6033 200.653 24.6459 199.693 24.7313 198.968L22.3313 199.064V196.6H31.5153V198.712C30.9393 198.733 30.5019 198.808 30.2033 198.936C29.9046 199.043 29.6699 199.288 29.4993 199.672C29.3286 200.056 29.2433 200.664 29.2433 201.496V213.752ZM53.817 196.6V198.712C53.049 198.712 52.441 198.915 51.993 199.32C51.545 199.725 51.0863 200.536 50.617 201.752L45.945 214.072C45.1343 216.205 44.217 217.645 43.193 218.392C42.1903 219.139 41.0597 219.512 39.801 219.512C38.7343 219.512 37.817 219.213 37.049 218.616C36.281 218.019 35.897 217.261 35.897 216.344C35.897 215.619 36.0997 215 36.505 214.488C36.9317 213.955 37.5397 213.688 38.329 213.688C39.0117 213.688 39.545 213.88 39.929 214.264C40.3343 214.648 40.537 215.117 40.537 215.672C40.537 216.163 40.377 216.632 40.057 217.08C40.1637 217.229 40.313 217.304 40.505 217.304C40.9743 217.304 41.4863 216.973 42.041 216.312C42.617 215.651 43.161 214.669 43.673 213.368L36.473 202.104C36.153 201.613 35.865 201.059 35.609 200.44C35.3743 199.8 35.257 199.309 35.257 198.968L33.689 199.064V196.6H43.129V198.712C42.4463 198.669 41.8917 198.755 41.465 198.968C41.0597 199.181 40.857 199.512 40.857 199.96C40.857 200.344 40.985 200.749 41.241 201.176L43.897 205.784C44.3877 206.637 44.889 207.544 45.401 208.504H45.497L47.929 201.88C48.2063 201.155 48.4517 200.568 48.665 200.12C48.8783 199.651 49.1023 199.267 49.337 198.968V198.936L46.873 199.064V196.6H53.817ZM65.6515 196.536C68.2115 196.515 70.2168 196.973 71.6675 197.912C73.1182 198.851 73.8435 200.227 73.8435 202.04C73.8435 203.085 73.4488 204.056 72.6595 204.952C71.8915 205.827 70.7502 206.467 69.2355 206.872V206.904C71.2835 207.224 72.8302 207.907 73.8755 208.952C74.9208 209.997 75.4435 211.224 75.4435 212.632C75.4435 214.659 74.7182 216.227 73.2675 217.336C71.8382 218.445 69.9715 219 67.6675 219H56.7875V216.888C57.3635 216.867 57.8008 216.803 58.0995 216.696C58.3982 216.568 58.6328 216.312 58.8035 215.928C58.9742 215.544 59.0595 214.936 59.0595 214.104V201.848C59.0595 200.653 59.1022 199.693 59.1875 198.968L56.7875 199.064V196.6L65.6515 196.536ZM65.6515 198.776C65.2035 198.776 64.8408 198.829 64.5635 198.936C64.3075 199.043 64.0942 199.299 63.9235 199.704C63.7742 200.088 63.6995 200.675 63.6995 201.464V206.424L65.3635 206.392C66.6222 206.371 67.5288 205.976 68.0835 205.208C68.6595 204.419 68.9475 203.384 68.9475 202.104C68.9475 200.952 68.6275 200.109 67.9875 199.576C67.3475 199.043 66.5688 198.776 65.6515 198.776ZM66.2915 208.664C65.1182 208.664 64.2542 208.675 63.6995 208.696V213.912C63.6995 215.064 63.6568 216.003 63.5715 216.728C64.9795 216.728 66.0142 216.717 66.6755 216.696C67.9342 216.632 68.8728 216.237 69.4915 215.512C70.1102 214.765 70.4195 213.773 70.4195 212.536C70.4195 211.171 70.0248 210.189 69.2355 209.592C68.4462 208.973 67.4648 208.664 66.2915 208.664ZM95.3398 213.464C95.5104 213.891 95.6918 214.424 95.8838 215.064C96.0758 215.683 96.1931 216.205 96.2358 216.632C96.9398 216.568 97.5584 216.536 98.0918 216.536V219H89.4838V216.888C90.5078 216.888 91.0198 216.461 91.0198 215.608C91.0198 215.181 90.9024 214.669 90.6678 214.072L90.0278 212.312L83.0838 212.44L82.5718 213.944C82.5078 214.115 82.3584 214.499 82.1238 215.096C81.9104 215.693 81.7184 216.173 81.5477 216.536C82.2304 216.472 82.9878 216.44 83.8198 216.44V219H76.9718V216.792C77.5264 216.792 77.9851 216.632 78.3478 216.312C78.7318 215.992 79.0304 215.608 79.2438 215.16C79.4571 214.691 79.7238 214.019 80.0438 213.144L86.2838 196.024H88.5238L95.3398 213.464ZM86.5078 201.656C86.1664 203.192 85.7718 204.6 85.3238 205.88L83.8838 210.04H89.2278L87.7558 206.04C87.1371 204.291 86.7318 202.829 86.5398 201.656H86.5078ZM100.319 216.888C100.895 216.867 101.332 216.803 101.631 216.696C101.929 216.568 102.164 216.312 102.335 215.928C102.505 215.544 102.591 214.936 102.591 214.104V201.848C102.591 200.653 102.633 199.693 102.719 198.968L100.319 199.064V196.6H109.503V198.712C108.927 198.733 108.489 198.808 108.191 198.936C107.892 199.043 107.657 199.288 107.487 199.672C107.316 200.056 107.231 200.664 107.231 201.496V216.568L111.775 216.504C112.329 216.461 112.756 216.387 113.055 216.28C113.353 216.173 113.588 215.928 113.759 215.544C113.929 215.16 114.015 214.552 114.015 213.72V201.848C114.015 200.461 114.047 199.501 114.111 198.968L111.711 199.064V196.6H120.895V198.712C120.319 198.733 119.881 198.808 119.583 198.936C119.284 199.043 119.049 199.288 118.879 199.672C118.708 200.056 118.623 200.664 118.623 201.496V213.752C118.623 215.139 118.58 216.077 118.495 216.568L123.167 216.504C123.721 216.483 124.148 216.419 124.447 216.312C124.745 216.205 124.98 215.96 125.151 215.576C125.321 215.171 125.407 214.552 125.407 213.72V201.848C125.407 200.419 125.449 199.459 125.535 198.968L123.135 199.064V196.6H132.319V198.712C131.743 198.733 131.305 198.808 131.007 198.936C130.708 199.043 130.473 199.288 130.303 199.672C130.132 200.056 130.047 200.664 130.047 201.496V213.752C130.047 214.947 130.004 215.907 129.919 216.632C130.601 216.568 131.401 216.536 132.319 216.536V219H100.319V216.888ZM146.351 196.088C147.205 196.088 148.122 196.227 149.103 196.504C150.106 196.781 151.023 197.165 151.855 197.656H151.887L151.759 196.312H154.223V203.768H152.143C151.567 200.227 149.775 198.435 146.767 198.392C145.338 198.392 144.122 198.819 143.119 199.672C142.138 200.504 141.402 201.613 140.911 203C140.421 204.387 140.175 205.88 140.175 207.48C140.175 209.315 140.442 210.947 140.975 212.376C141.509 213.805 142.277 214.925 143.279 215.736C144.282 216.525 145.487 216.92 146.895 216.92C148.261 216.92 149.594 216.568 150.895 215.864C152.218 215.16 153.327 214.2 154.223 212.984L155.759 214.392C154.351 216.333 152.805 217.677 151.119 218.424C149.434 219.149 147.77 219.512 146.127 219.512C143.973 219.512 142.063 219.011 140.399 218.008C138.735 217.005 137.445 215.64 136.527 213.912C135.61 212.163 135.151 210.232 135.151 208.12C135.151 206.093 135.578 204.163 136.431 202.328C137.306 200.472 138.586 198.968 140.271 197.816C141.957 196.664 143.983 196.088 146.351 196.088ZM177.843 198.712C176.925 198.755 176.061 198.989 175.251 199.416C174.461 199.843 173.672 200.696 172.883 201.976L169.811 206.904V206.936C170.621 207.427 171.293 208.045 171.827 208.792L175.123 213.432C176.701 215.672 178.099 216.824 179.315 216.888V219H174.387C174.152 218.979 173.683 218.605 172.979 217.88C172.296 217.133 171.72 216.419 171.251 215.736L168.083 211.128C167.784 210.701 167.464 210.275 167.123 209.848C166.781 209.421 166.483 209.112 166.227 208.92H165.075V213.752C165.075 214.947 165.032 215.907 164.947 216.632C165.629 216.568 166.429 216.536 167.347 216.536V219H158.163V216.888C158.739 216.867 159.176 216.803 159.475 216.696C159.773 216.568 160.008 216.312 160.179 215.928C160.349 215.544 160.435 214.936 160.435 214.104V201.848C160.435 200.653 160.477 199.693 160.562 198.968L158.163 199.064V196.6H167.347V198.712C166.771 198.733 166.333 198.808 166.035 198.936C165.736 199.043 165.501 199.288 165.331 199.672C165.16 200.056 165.075 200.664 165.075 201.496V206.36H167.379L169.843 202.168C170.867 200.376 171.592 199.309 172.019 198.968V198.936C171.549 198.979 171.144 199.011 170.803 199.032C170.461 199.032 170.195 199.043 170.003 199.064V196.6H177.843V198.712ZM190.883 196.088C193.337 196.088 195.395 196.675 197.059 197.848C198.745 199 199.993 200.472 200.803 202.264C201.614 204.056 202.019 205.901 202.019 207.8C202.019 209.656 201.593 211.491 200.739 213.304C199.886 215.096 198.606 216.579 196.899 217.752C195.214 218.925 193.177 219.512 190.787 219.512C188.227 219.512 186.115 218.947 184.451 217.816C182.787 216.685 181.571 215.235 180.803 213.464C180.035 211.693 179.651 209.805 179.651 207.8C179.651 205.901 180.078 204.056 180.931 202.264C181.785 200.472 183.054 199 184.739 197.848C186.446 196.675 188.494 196.088 190.883 196.088ZM190.627 198.424C189.219 198.424 188.067 198.872 187.171 199.768C186.275 200.664 185.635 201.795 185.251 203.16C184.867 204.525 184.675 205.944 184.675 207.416C184.675 208.909 184.889 210.403 185.315 211.896C185.742 213.389 186.435 214.648 187.395 215.672C188.377 216.675 189.614 217.176 191.107 217.176C192.494 217.176 193.625 216.739 194.499 215.864C195.374 214.989 196.003 213.88 196.387 212.536C196.771 211.192 196.963 209.795 196.963 208.344C196.963 205.315 196.43 202.904 195.363 201.112C194.297 199.32 192.718 198.424 190.627 198.424ZM225.586 213.752C225.586 214.947 225.543 215.907 225.458 216.632C226.141 216.568 226.941 216.536 227.858 216.536V219H218.674V216.888C219.25 216.867 219.687 216.803 219.986 216.696C220.285 216.568 220.519 216.312 220.69 215.928C220.861 215.544 220.946 214.936 220.946 214.104V203.864L211.762 214.776C211.741 215.203 211.698 215.821 211.634 216.632C212.317 216.568 213.117 216.536 214.034 216.536V219H204.85V216.888C205.426 216.867 205.863 216.803 206.162 216.696C206.461 216.568 206.695 216.312 206.866 215.928C207.037 215.544 207.122 214.936 207.122 214.104V201.848C207.122 200.653 207.165 199.693 207.25 198.968L204.85 199.064V196.6H214.034V198.712C213.458 198.733 213.021 198.808 212.722 198.936C212.423 199.043 212.189 199.288 212.018 199.672C211.847 200.056 211.762 200.664 211.762 201.496V211.256L220.978 200.408L221.074 198.968L218.674 199.064V196.6H227.858V198.712C227.282 198.733 226.845 198.808 226.546 198.936C226.247 199.043 226.013 199.288 225.842 199.672C225.671 200.056 225.586 200.664 225.586 201.496V213.752ZM220.722 189.368C221.298 189.368 221.735 189.571 222.034 189.976C222.354 190.36 222.514 190.829 222.514 191.384C222.514 192.429 221.938 193.24 220.786 193.816C219.655 194.392 218.247 194.68 216.562 194.68C214.877 194.68 213.458 194.392 212.306 193.816C211.175 193.24 210.61 192.429 210.61 191.384C210.61 190.829 210.759 190.36 211.058 189.976C211.357 189.571 211.794 189.368 212.37 189.368C213.031 189.347 213.511 189.549 213.81 189.976C214.109 190.381 214.258 190.776 214.258 191.16C214.258 191.587 214.151 192.013 213.938 192.44C214.599 192.867 215.474 193.08 216.562 193.08C217.053 193.08 217.533 193.027 218.002 192.92C218.471 192.813 218.855 192.653 219.154 192.44C218.941 192.013 218.834 191.587 218.834 191.16C218.834 190.776 218.983 190.381 219.282 189.976C219.602 189.549 220.082 189.347 220.722 189.368ZM12.7349 229.536C15.6149 229.515 17.8655 230.091 19.4869 231.264C21.1295 232.416 21.9509 234.176 21.9509 236.544C21.9509 237.76 21.6095 238.923 20.9269 240.032C20.2442 241.141 19.2202 242.048 17.8549 242.752C16.4895 243.456 14.8255 243.84 12.8629 243.904L11.6149 243.936L10.5589 243.904V246.72C10.5589 247.936 10.5162 248.907 10.4309 249.632C11.1135 249.568 12.0202 249.536 13.1509 249.536V252H3.64688V249.888C4.22288 249.867 4.66021 249.803 4.95888 249.696C5.25754 249.568 5.49221 249.312 5.66288 248.928C5.83354 248.544 5.91888 247.936 5.91888 247.104V234.848C5.91888 233.653 5.96154 232.693 6.04688 231.968L3.64688 232.064V229.6L12.7349 229.536ZM12.7029 231.776C11.9562 231.776 11.4122 231.936 11.0709 232.256C10.7295 232.576 10.5589 233.259 10.5589 234.304V241.504C11.0069 241.568 11.4869 241.6 11.9989 241.6C13.7269 241.6 14.9855 241.173 15.7749 240.32C16.5855 239.445 16.9909 238.176 16.9909 236.512C16.9909 233.355 15.5615 231.776 12.7029 231.776ZM40.7764 235.808H38.6644C38.6644 234.229 38.2804 233.141 37.5124 232.544C36.7657 231.925 35.859 231.637 34.7924 231.68L33.6404 231.712C33.1284 231.733 32.723 231.808 32.4244 231.936C32.1257 232.043 31.891 232.299 31.7204 232.704C31.571 233.109 31.4964 233.707 31.4964 234.496V239.296H35.2404C35.219 238.933 35.1764 238.005 35.1124 236.512H37.5764V244.288H35.4644C35.4644 243.435 35.3257 242.805 35.0484 242.4C34.7924 241.995 34.451 241.739 34.0244 241.632C33.5977 241.504 33.0324 241.451 32.3284 241.472L31.4964 241.504V246.752C31.4964 247.904 31.4537 248.843 31.3684 249.568H35.6564C36.7444 249.568 37.6617 249.205 38.4084 248.48C39.1764 247.733 39.5604 246.56 39.5604 244.96H41.6404L41.4804 252H24.5844V249.888C25.1604 249.867 25.5977 249.803 25.8964 249.696C26.195 249.568 26.4297 249.312 26.6004 248.928C26.771 248.544 26.8564 247.936 26.8564 247.104V234.848C26.8564 233.653 26.899 232.693 26.9844 231.968L24.5844 232.064V229.6H40.5844L40.7764 235.808ZM55.7731 229.088C56.6265 229.088 57.5438 229.227 58.5251 229.504C59.5278 229.781 60.4451 230.165 61.2771 230.656H61.3091L61.1811 229.312H63.6451V236.768H61.5651C60.9891 233.227 59.1971 231.435 56.1891 231.392C54.7598 231.392 53.5438 231.819 52.5411 232.672C51.5598 233.504 50.8238 234.613 50.3331 236C49.8425 237.387 49.5971 238.88 49.5971 240.48C49.5971 242.315 49.8638 243.947 50.3971 245.376C50.9305 246.805 51.6985 247.925 52.7011 248.736C53.7038 249.525 54.9091 249.92 56.3171 249.92C57.6825 249.92 59.0158 249.568 60.3171 248.864C61.6398 248.16 62.7491 247.2 63.6451 245.984L65.1811 247.392C63.7731 249.333 62.2265 250.677 60.5411 251.424C58.8558 252.149 57.1918 252.512 55.5491 252.512C53.3945 252.512 51.4851 252.011 49.8211 251.008C48.1571 250.005 46.8665 248.64 45.9491 246.912C45.0318 245.163 44.5731 243.232 44.5731 241.12C44.5731 239.093 44.9998 237.163 45.8531 235.328C46.7278 233.472 48.0078 231.968 49.6931 230.816C51.3785 229.664 53.4051 229.088 55.7731 229.088ZM67.5844 249.888C68.1604 249.867 68.5977 249.803 68.8964 249.696C69.195 249.568 69.4297 249.312 69.6004 248.928C69.771 248.544 69.8564 247.936 69.8564 247.104V234.848C69.8564 233.653 69.899 232.693 69.9844 231.968L67.5844 232.064V229.6H89.7284V231.712C89.1524 231.733 88.715 231.808 88.4164 231.936C88.1177 232.043 87.883 232.288 87.7124 232.672C87.5417 233.056 87.4564 233.664 87.4564 234.496V246.752C87.4564 247.947 87.4137 248.907 87.3284 249.632C88.011 249.568 88.811 249.536 89.7284 249.536V252H80.5444V249.888C81.1204 249.867 81.5577 249.803 81.8564 249.696C82.155 249.568 82.3897 249.312 82.5604 248.928C82.731 248.544 82.8164 247.936 82.8164 247.104V232L76.7044 232.096C76.1497 232.117 75.723 232.192 75.4244 232.32C75.1257 232.427 74.891 232.683 74.7204 233.088C74.571 233.472 74.4964 234.069 74.4964 234.88V246.752C74.4964 247.947 74.4537 248.907 74.3684 249.632C75.051 249.568 75.851 249.536 76.7684 249.536V252H67.5844V249.888ZM112.02 229.6V231.712C111.252 231.712 110.644 231.915 110.196 232.32C109.748 232.725 109.289 233.536 108.82 234.752L104.148 247.072C103.337 249.205 102.42 250.645 101.396 251.392C100.393 252.139 99.2628 252.512 98.0041 252.512C96.9375 252.512 96.0201 252.213 95.2521 251.616C94.4841 251.019 94.1001 250.261 94.1001 249.344C94.1001 248.619 94.3028 248 94.7081 247.488C95.1348 246.955 95.7428 246.688 96.5321 246.688C97.2148 246.688 97.7481 246.88 98.1321 247.264C98.5375 247.648 98.7401 248.117 98.7401 248.672C98.7401 249.163 98.5801 249.632 98.2601 250.08C98.3668 250.229 98.5161 250.304 98.7081 250.304C99.1775 250.304 99.6895 249.973 100.244 249.312C100.82 248.651 101.364 247.669 101.876 246.368L94.6761 235.104C94.3561 234.613 94.0681 234.059 93.8121 233.44C93.5775 232.8 93.4601 232.309 93.4601 231.968L91.8921 232.064V229.6H101.332V231.712C100.649 231.669 100.095 231.755 99.6681 231.968C99.2628 232.181 99.0601 232.512 99.0601 232.96C99.0601 233.344 99.1881 233.749 99.4441 234.176L102.1 238.784C102.591 239.637 103.092 240.544 103.604 241.504H103.7L106.132 234.88C106.409 234.155 106.655 233.568 106.868 233.12C107.081 232.651 107.305 232.267 107.54 231.968V231.936L105.076 232.064V229.6H112.02ZM114.991 249.888C115.567 249.867 116.004 249.803 116.303 249.696C116.601 249.568 116.836 249.312 117.007 248.928C117.177 248.544 117.263 247.936 117.263 247.104V234.848C117.263 233.653 117.305 232.693 117.391 231.968L114.991 232.064V229.6H131.951L132.111 235.808H130.031C130.031 234.229 129.647 233.141 128.879 232.544C128.132 231.947 127.215 231.659 126.127 231.68L124.047 231.712C123.535 231.712 123.129 231.776 122.831 231.904C122.532 232.032 122.297 232.299 122.127 232.704C121.977 233.088 121.903 233.685 121.903 234.496V238.976L123.823 238.912C126.447 238.848 128.484 239.104 129.935 239.68C131.385 240.235 132.367 241.003 132.879 241.984C133.391 242.965 133.647 244.139 133.647 245.504C133.647 247.573 132.932 249.173 131.503 250.304C130.073 251.435 128.196 252 125.871 252H114.991V249.888ZM121.775 249.728C123.183 249.728 124.217 249.717 124.879 249.696C126.137 249.632 127.076 249.216 127.695 248.448C128.313 247.68 128.623 246.656 128.623 245.376C128.623 243.861 128.228 242.795 127.439 242.176C126.671 241.536 125.689 241.216 124.495 241.216H123.119C122.585 241.216 122.18 241.227 121.903 241.248V246.912C121.903 248.064 121.86 249.003 121.775 249.728ZM139.527 252.512C138.354 252.512 137.426 252.267 136.743 251.776C136.06 251.264 135.719 250.56 135.719 249.664C135.719 248.853 135.943 248.181 136.391 247.648C136.839 247.115 137.49 246.848 138.343 246.848C139.068 246.848 139.602 247.04 139.943 247.424C140.306 247.808 140.487 248.309 140.487 248.928C140.487 249.291 140.402 249.589 140.231 249.824C140.338 249.888 140.498 249.92 140.711 249.92C141.159 249.92 141.66 249.408 142.215 248.384C142.791 247.339 143.303 245.749 143.751 243.616C144.199 241.461 144.466 238.816 144.551 235.68L144.647 231.968L140.967 232.064V229.6H158.631V231.712C158.055 231.733 157.618 231.808 157.319 231.936C157.02 232.043 156.786 232.288 156.615 232.672C156.444 233.056 156.359 233.664 156.359 234.496V246.752C156.359 248.181 156.316 249.141 156.231 249.632C156.935 249.568 157.735 249.536 158.631 249.536V252H149.447V249.888C150.023 249.867 150.46 249.803 150.759 249.696C151.058 249.568 151.292 249.312 151.463 248.928C151.634 248.544 151.719 247.936 151.719 247.104V232L149.159 232.096C148.412 232.117 147.868 232.267 147.527 232.544C147.207 232.821 147.036 233.301 147.015 233.984C146.93 238.379 146.535 241.952 145.831 244.704C145.148 247.456 144.263 249.451 143.175 250.688C142.087 251.904 140.871 252.512 139.527 252.512ZM183.07 246.752C183.07 247.947 183.028 248.907 182.942 249.632C183.625 249.568 184.425 249.536 185.342 249.536V252H176.158V249.888C176.734 249.867 177.172 249.803 177.47 249.696C177.769 249.568 178.004 249.312 178.174 248.928C178.345 248.544 178.43 247.936 178.43 247.104V236.864L169.246 247.776C169.225 248.203 169.182 248.821 169.118 249.632C169.801 249.568 170.601 249.536 171.518 249.536V252H162.334V249.888C162.91 249.867 163.348 249.803 163.646 249.696C163.945 249.568 164.18 249.312 164.35 248.928C164.521 248.544 164.606 247.936 164.606 247.104V234.848C164.606 233.653 164.649 232.693 164.734 231.968L162.334 232.064V229.6H171.518V231.712C170.942 231.733 170.505 231.808 170.206 231.936C169.908 232.043 169.673 232.288 169.502 232.672C169.332 233.056 169.246 233.664 169.246 234.496V244.256L178.462 233.408L178.558 231.968L176.158 232.064V229.6H185.342V231.712C184.766 231.733 184.329 231.808 184.03 231.936C183.732 232.043 183.497 232.288 183.326 232.672C183.156 233.056 183.07 233.664 183.07 234.496V246.752ZM208.733 231.712C207.816 231.755 206.952 231.989 206.141 232.416C205.352 232.843 204.562 233.696 203.773 234.976L200.701 239.904V239.936C201.512 240.427 202.184 241.045 202.717 241.792L206.013 246.432C207.592 248.672 208.989 249.824 210.205 249.888V252H205.277C205.042 251.979 204.573 251.605 203.869 250.88C203.186 250.133 202.61 249.419 202.141 248.736L198.973 244.128C198.674 243.701 198.354 243.275 198.013 242.848C197.672 242.421 197.373 242.112 197.117 241.92H195.965V246.752C195.965 247.947 195.922 248.907 195.837 249.632C196.52 249.568 197.32 249.536 198.237 249.536V252H189.053V249.888C189.629 249.867 190.066 249.803 190.365 249.696C190.664 249.568 190.898 249.312 191.069 248.928C191.24 248.544 191.325 247.936 191.325 247.104V234.848C191.325 233.653 191.368 232.693 191.453 231.968L189.053 232.064V229.6H198.237V231.712C197.661 231.733 197.224 231.808 196.925 231.936C196.626 232.043 196.392 232.288 196.221 232.672C196.05 233.056 195.965 233.664 195.965 234.496V239.36H198.269L200.733 235.168C201.757 233.376 202.482 232.309 202.909 231.968V231.936C202.44 231.979 202.034 232.011 201.693 232.032C201.352 232.032 201.085 232.043 200.893 232.064V229.6H208.733V231.712ZM233.07 246.752C233.07 247.947 233.028 248.907 232.942 249.632C233.625 249.568 234.425 249.536 235.342 249.536V252H226.158V249.888C226.734 249.867 227.172 249.803 227.47 249.696C227.769 249.568 228.004 249.312 228.174 248.928C228.345 248.544 228.43 247.936 228.43 247.104V236.864L219.246 247.776C219.225 248.203 219.182 248.821 219.118 249.632C219.801 249.568 220.601 249.536 221.518 249.536V252H212.334V249.888C212.91 249.867 213.348 249.803 213.646 249.696C213.945 249.568 214.18 249.312 214.35 248.928C214.521 248.544 214.606 247.936 214.606 247.104V234.848C214.606 233.653 214.649 232.693 214.734 231.968L212.334 232.064V229.6H221.518V231.712C220.942 231.733 220.505 231.808 220.206 231.936C219.908 232.043 219.673 232.288 219.502 232.672C219.332 233.056 219.246 233.664 219.246 234.496V244.256L228.462 233.408L228.558 231.968L226.158 232.064V229.6H235.342V231.712C234.766 231.733 234.329 231.808 234.03 231.936C233.732 232.043 233.497 232.288 233.326 232.672C233.156 233.056 233.07 233.664 233.07 234.496V246.752Z" fill="#B32B1C"/>
</svg>
