<svg width="317" height="342" viewBox="0 0 317 342" fill="none" xmlns="http://www.w3.org/2000/svg">
<g filter="url(#filter0_d_152_247)">
<path fill-rule="evenodd" clip-rule="evenodd" d="M146.027 134.527V118.424L86.5998 59.1418H65.0825L32.8729 91.3514L59.8089 118.283H81.3304L100.14 99.4733L78.6231 77.9519L65.0825 91.3514L73.2044 99.4733L78.6231 94.0546L83.8925 99.4733L73.2044 110.157L54.3944 91.3514L78.6231 67.2637L146.027 134.527Z" fill="#B32B1C"/>
<path fill-rule="evenodd" clip-rule="evenodd" d="M172.536 134.527V118.424L231.819 59.1418H253.336L285.691 91.3514L258.755 118.283H237.233L218.423 99.4733L239.94 77.9519L253.336 91.3514L245.359 99.4733L239.94 94.0546L234.526 99.4733L245.359 110.157L264.169 91.3514L239.94 67.2637L172.536 134.527Z" fill="#B32B1C"/>
<path fill-rule="evenodd" clip-rule="evenodd" d="M172.536 255.425V145.36L213.009 104.888L239.94 131.679V153.196L224.41 168.876L200.181 144.647L213.581 131.252L221.703 139.232L216.284 144.647L221.703 150.062L231.964 139.8L213.009 120.99L183.937 150.062V252.818L172.536 255.425Z" fill="#B32B1C"/>
<path fill-rule="evenodd" clip-rule="evenodd" d="M146.027 256.728V145.36L105.555 104.888L78.6229 131.679V153.196L94.1535 168.876L118.382 144.647L104.983 131.252L96.8608 139.232L102.28 144.647L96.8608 150.062L86.5997 139.8L105.555 120.99L134.626 150.062V252.818L146.027 256.728Z" fill="#B32B1C"/>
<path fill-rule="evenodd" clip-rule="evenodd" d="M164.982 260.637V115.29L226.548 53.7227V32.2055L194.339 0L167.403 26.936V48.3123L186.217 67.1223L207.734 45.6009L194.339 32.2096L186.358 40.3273L191.777 45.746L186.358 51.1606L175.529 40.4724L194.339 21.6624L218.567 45.8911L159.281 104.887L100.139 45.746L124.368 21.5173L143.178 40.3273L132.345 51.0155L126.93 45.6009L132.345 40.1822L124.368 32.0604L110.973 45.4558L132.49 66.9731L151.3 48.1631V26.936L124.368 0L92.0135 32.2055V53.7227L153.58 115.29V260.637H164.982Z" fill="#B32B1C"/>
<path fill-rule="evenodd" clip-rule="evenodd" d="M121.327 333.325C121.327 330.131 120.165 327.517 117.842 325.194C115.809 323.161 112.905 321.709 109.711 321.709H4V308.93H110.001C116.68 308.93 122.489 311.544 126.845 315.9C131.201 320.257 133.815 326.355 133.815 332.744H121.327V333.325ZM312.71 321.999H206.709C203.514 321.999 200.9 323.161 198.577 325.484C196.544 327.517 195.092 330.421 195.092 333.616H182.314C182.314 326.936 184.928 321.128 189.284 316.772C193.64 312.415 199.739 309.802 206.128 309.802H312.129V321.999H312.71Z" fill="#B32B1C"/>
<path fill-rule="evenodd" clip-rule="evenodd" d="M10.3891 140.781H16.7782V176.792V278.437H110.001C125.102 278.437 138.752 284.535 148.626 294.41C152.401 298.185 155.886 302.832 158.5 307.478C161.114 302.541 164.308 298.185 168.374 294.41C178.248 284.535 191.898 278.437 206.999 278.437H300.222V176.792V140.781H313V291.215H206.999C195.383 291.215 184.928 295.862 177.377 303.703C169.826 311.254 164.889 321.999 164.889 333.325H152.111C152.111 321.708 147.464 311.254 139.623 303.703C132.072 296.152 121.327 291.215 110.001 291.215H4V140.781H10.3891Z" fill="#B32B1C"/>
<path fill-rule="evenodd" clip-rule="evenodd" d="M59.1794 127.712H47.5625H34.4939V140.781V161.981V175.34V257.527H108.259C116.681 257.527 125.103 258.979 132.654 261.302C140.495 263.916 148.046 267.691 154.725 272.338L158.5 274.952L162.276 272.338C168.955 267.691 176.506 263.916 184.347 261.302C191.898 258.979 200.03 257.527 208.742 257.527H282.217V175.34V168.66V161.981V140.781V127.712H269.148H259.565V140.781H269.148V161.981V175.05V244.168H209.032C199.158 244.168 189.575 245.62 180.572 248.524C172.731 251.138 165.18 254.623 158.5 258.979C151.531 254.623 144.27 251.138 136.429 248.524C127.426 245.62 117.843 244.168 107.969 244.168H48.4338V175.05V161.981V140.781H59.1794V127.712Z" fill="#B32B1C"/>
</g>
<defs>
<filter id="filter0_d_152_247" x="0" y="0" width="317" height="341.615" filterUnits="userSpaceOnUse" color-interpolation-filters="sRGB">
<feFlood flood-opacity="0" result="BackgroundImageFix"/>
<feColorMatrix in="SourceAlpha" type="matrix" values="0 0 0 0 0 0 0 0 0 0 0 0 0 0 0 0 0 0 127 0" result="hardAlpha"/>
<feOffset dy="4"/>
<feGaussianBlur stdDeviation="2"/>
<feComposite in2="hardAlpha" operator="out"/>
<feColorMatrix type="matrix" values="0 0 0 0 0 0 0 0 0 0 0 0 0 0 0 0 0 0 0.25 0"/>
<feBlend mode="normal" in2="BackgroundImageFix" result="effect1_dropShadow_152_247"/>
<feBlend mode="normal" in="SourceGraphic" in2="effect1_dropShadow_152_247" result="shape"/>
</filter>
</defs>
</svg>
