<svg width="19" height="15" viewBox="0 0 19 15" fill="none" xmlns="http://www.w3.org/2000/svg">
<path d="M13.2778 11.7586H18M15.6389 9.51724V14M9.5 13.5517H4.02222C2.96435 13.5517 2.4354 13.5517 2.03135 13.3563C1.67593 13.1844 1.38697 12.9101 1.20588 12.5727C1 12.1891 1 11.687 1 10.6828V3.86897C1 2.86474 1 2.36262 1.20588 1.97905C1.38697 1.64165 1.67593 1.36734 2.03135 1.19544C2.4354 1 2.96435 1 4.02222 1H14.9778C16.0356 1 16.5646 1 16.9687 1.19544C17.3241 1.36734 17.6131 1.64165 17.7941 1.97905C18 2.36262 18 2.86474 18 3.86897V6.37931M17.6286 3.92481L12.8527 6.94728C11.641 7.7141 11.0351 8.09755 10.3802 8.24656C9.80147 8.37817 9.19816 8.37817 8.6195 8.24656C7.96462 8.09755 7.35875 7.7141 6.14699 6.94728L1.13927 3.77808" stroke="#B32B1C" stroke-width="2" stroke-linecap="round" stroke-linejoin="round"/>
</svg>
