<svg width="27" height="36" viewBox="0 0 27 36" fill="none" xmlns="http://www.w3.org/2000/svg">
<path d="M4.33007 21.8487L4.32969 21.8483C2.56564 19.692 1.5 16.9087 1.5 13.8723C1.5 7.09117 6.81449 1.5 13.484 1.5C20.1534 1.5 25.468 7.09111 25.4677 13.872L4.33007 21.8487ZM4.33007 21.8487L12.3234 31.6112L13.484 33.0287M4.33007 21.8487L13.484 33.0287M13.484 33.0287L14.6446 31.6112M13.484 33.0287L14.6446 31.6112M14.6446 31.6112L22.6376 21.8484L22.6379 21.8481M14.6446 31.6112L22.6379 21.8481M22.6379 21.8481C24.4021 19.692 25.4677 16.9083 25.4677 13.8721L22.6379 21.8481ZM13.484 16.4692C11.9821 16.4692 10.6724 15.1909 10.6724 13.4979C10.6724 11.805 11.9821 10.5267 13.484 10.5267C14.9859 10.5267 16.2955 11.805 16.2955 13.4979C16.2955 15.1909 14.9859 16.4692 13.484 16.4692Z" fill="white" stroke="#FF0000" stroke-width="3"/>
</svg>
