<svg width="16" height="19" viewBox="0 0 16 19" fill="none" xmlns="http://www.w3.org/2000/svg">
<path opacity="0.5" d="M9.60618 9.60014L10.775 10.775M9.60618 9.60014C10.0659 9.13893 10.35 8.50262 10.35 7.80001C10.35 6.39168 9.20838 5.25 7.80001 5.25C6.39164 5.25 5.25001 6.39168 5.25001 7.80001C5.25001 9.20837 6.39164 10.35 7.80001 10.35C8.50568 10.35 9.14445 10.0634 9.60618 9.60014ZM1 7.92181C1 4.099 4.04447 1 7.80001 1C11.5556 1 14.6 4.099 14.6 7.92181C14.6 11.7147 12.4297 16.1406 9.04348 17.7233C8.25416 18.0922 7.34585 18.0922 6.55654 17.7233C3.17032 16.1406 1 11.7147 1 7.92181Z" stroke="white" stroke-width="2" stroke-linecap="round"/>
</svg>
