<svg width="19" height="20" viewBox="0 0 19 20" fill="none" xmlns="http://www.w3.org/2000/svg">
<path opacity="0.5" d="M18 11.4874V9.7874C18 6.58185 18 4.97908 17.0041 3.98324C16.0084 2.9874 14.4055 2.9874 11.2 2.9874H7.8C4.59445 2.9874 2.99168 2.9874 1.99583 3.98324C1 4.97908 1 6.58185 1 9.7874V11.4874C1 14.6929 1 16.2958 1.99583 17.2915C2.99168 18.2874 4.59445 18.2874 7.8 18.2874H11.2M5.25 2.9874V1.7124M13.75 2.9874V1.7124M1 7.2374H18M16.725 17.0124L18 18.2874M17.15 14.8874C17.15 16.2957 16.0083 17.4374 14.6 17.4374C13.1917 17.4374 12.05 16.2957 12.05 14.8874C12.05 13.4791 13.1917 12.3374 14.6 12.3374C16.0083 12.3374 17.15 13.4791 17.15 14.8874Z" stroke="white" stroke-width="2" stroke-linecap="round"/>
</svg>
