<svg width="20" height="22" viewBox="0 0 20 22" fill="none" xmlns="http://www.w3.org/2000/svg">
<path opacity="0.2" d="M5 5H10M1 9C1 5.22876 1 3.34315 2.17157 2.17157C3.34315 1 5.22876 1 9 1H11C14.7712 1 16.6569 1 17.8284 2.17157C19 3.34315 19 5.22876 19 9V13C19 16.7712 19 18.6569 17.8284 19.8284C16.6569 21 14.7712 21 11 21H9C5.22876 21 3.34315 21 2.17157 19.8284C1 18.6569 1 16.7712 1 13V9ZM4 11C4 9.5858 4 8.87868 4.43934 8.43934C4.87868 8 5.58579 8 7 8H13C14.4142 8 15.1213 8 15.5607 8.43934C16 8.87868 16 9.5858 16 11V15C16 16.4142 16 17.1213 15.5607 17.5607C15.1213 18 14.4142 18 13 18H7C5.58579 18 4.87868 18 4.43934 17.5607C4 17.1213 4 16.4142 4 15V11Z" stroke="#111111" stroke-width="2" stroke-linecap="round"/>
</svg>
