<svg width="28" height="31" viewBox="0 0 28 31" fill="none" xmlns="http://www.w3.org/2000/svg">
<path fill-rule="evenodd" clip-rule="evenodd" d="M10.918 0.718751H17.0826C19.134 0.718723 20.7875 0.718696 22.0878 0.878966C23.438 1.04537 24.5748 1.40134 25.4777 2.22898C26.3807 3.05662 26.7689 4.09869 26.9505 5.33634C27.1253 6.52843 27.1253 8.04412 27.1253 9.92455V21.0755C27.1253 22.9559 27.1253 24.4716 26.9505 25.6637C26.7689 26.9014 26.3807 27.9433 25.4777 28.7711C24.5748 29.5987 23.438 29.9547 22.0878 30.1211C20.7875 30.2812 19.1339 30.2812 17.0826 30.2812H10.918C8.86659 30.2812 7.2131 30.2812 5.91266 30.1211C4.56249 29.9547 3.42567 29.5987 2.52281 28.7711C1.61993 27.9433 1.23159 26.9014 1.05006 25.6637C0.992013 25.2679 0.953238 24.8365 0.927348 24.3679C0.868728 24.1982 0.857313 24.0129 0.903423 23.8281C0.875238 23.0142 0.875253 22.0988 0.875283 21.0755V9.92455C0.875253 8.04412 0.875223 6.52843 1.05006 5.33634C1.23159 4.09869 1.61993 3.05662 2.52281 2.22898C3.42567 1.40134 4.56249 1.04537 5.91264 0.878966C7.2131 0.718696 8.86658 0.718723 10.918 0.718751ZM3.16541 24.0925C3.18821 24.579 3.22395 25.0067 3.27999 25.3889C3.42798 26.3978 3.69864 26.932 4.1138 27.3126C4.52894 27.6932 5.11179 27.9413 6.21246 28.077C7.34549 28.2165 8.84715 28.2187 11.0003 28.2187H17.0003C19.1534 28.2187 20.655 28.2165 21.7881 28.077C22.8887 27.9413 23.4716 27.6932 23.8868 27.3126C24.1812 27.0427 24.4029 26.6954 24.5598 26.1562H8.00028C7.37895 26.1562 6.87528 25.6945 6.87528 25.125C6.87528 24.5555 7.37895 24.0937 8.00028 24.0937H24.8351C24.8628 23.5011 24.8715 22.8213 24.8741 22.0312H7.84694C6.37956 22.0312 5.86655 22.0401 5.47343 22.1367C4.39445 22.4017 3.53429 23.1369 3.16541 24.0925ZM24.8753 19.9688H7.84694C7.78818 19.9688 7.7303 19.9688 7.67325 19.9688C6.4463 19.9683 5.60907 19.9681 4.89108 20.1445C4.24911 20.3022 3.65363 20.5597 3.12528 20.8981V10C3.12528 8.0263 3.12767 6.64977 3.27999 5.61117C3.42798 4.60223 3.69864 4.06793 4.1138 3.68739C4.52894 3.30684 5.11179 3.05873 6.21246 2.92308C7.34549 2.78344 8.84715 2.78125 11.0003 2.78125H17.0003C19.1534 2.78125 20.655 2.78344 21.7881 2.92308C22.8887 3.05873 23.4716 3.30684 23.8868 3.68739C24.3018 4.06793 24.5726 4.60223 24.7205 5.61117C24.8729 6.64977 24.8753 8.0263 24.8753 10V19.9688ZM6.87528 8.625C6.87528 8.05546 7.37895 7.59375 8.00028 7.59375H20.0003C20.6216 7.59375 21.1253 8.05546 21.1253 8.625C21.1253 9.19454 20.6216 9.65625 20.0003 9.65625H8.00028C7.37895 9.65625 6.87528 9.19454 6.87528 8.625ZM6.87528 13.4375C6.87528 12.868 7.37895 12.4062 8.00028 12.4062H15.5003C16.1216 12.4062 16.6253 12.868 16.6253 13.4375C16.6253 14.007 16.1216 14.4688 15.5003 14.4688H8.00028C7.37895 14.4688 6.87528 14.007 6.87528 13.4375Z" fill="white"/>
</svg>
