<svg width="30" height="30" viewBox="0 0 30 30" fill="none" xmlns="http://www.w3.org/2000/svg">
<path d="M20.3334 17.7277V14.3987C20.3334 11.5396 20.3334 10.1101 19.5523 9.22186C18.7712 8.33366 17.5142 8.33366 15 8.33366C12.4859 8.33366 11.2288 8.33366 10.4477 9.22186C9.66669 10.1101 9.66669 11.5396 9.66669 14.3987V17.7277C9.66669 19.7919 9.66669 20.8242 10.1017 21.2753C10.3092 21.4903 10.5711 21.6254 10.85 21.6614C11.435 21.7366 12.1181 21.057 13.4843 19.6975C14.0882 19.0966 14.3902 18.7962 14.7395 18.717C14.9115 18.6781 15.0886 18.6781 15.2606 18.717C15.6099 18.7962 15.9119 19.0966 16.5158 19.6975C17.882 21.057 18.5651 21.7366 19.15 21.6614C19.429 21.6254 19.6908 21.4903 19.8983 21.2753C20.3334 20.8242 20.3334 19.7919 20.3334 17.7277Z" stroke="white" stroke-width="2"/>
<path d="M28.3334 15.0003C28.3334 22.3641 22.3638 28.3337 15 28.3337C7.63622 28.3337 1.66669 22.3641 1.66669 15.0003C1.66669 7.63652 7.63622 1.66699 15 1.66699C22.3638 1.66699 28.3334 7.63652 28.3334 15.0003Z" stroke="white" stroke-width="2"/>
</svg>
