<svg width="17" height="17" viewBox="0 0 17 17" fill="none" xmlns="http://www.w3.org/2000/svg">
<path d="M6.36488 3.55629C7.31486 1.8521 7.78984 1 8.50001 1C9.21019 1 9.68517 1.85209 10.6351 3.55628L10.8809 3.99718C11.1509 4.48145 11.2858 4.7236 11.4963 4.88336C11.7068 5.04313 11.9688 5.10243 12.4931 5.22104L12.9704 5.32903C14.8151 5.74643 15.7375 5.95512 15.957 6.66081C16.1764 7.36646 15.5476 8.10184 14.2899 9.57244L13.9646 9.95291C13.6072 10.3708 13.4285 10.5798 13.3481 10.8383C13.2678 11.0968 13.2948 11.3756 13.3488 11.9332L13.398 12.4408C13.5881 14.403 13.6832 15.384 13.1087 15.8202C12.5341 16.2563 11.6705 15.8586 9.94324 15.0634L9.49639 14.8576C9.00559 14.6316 8.76019 14.5186 8.50001 14.5186C8.23984 14.5186 7.99444 14.6316 7.50364 14.8576L7.05679 15.0634C5.32952 15.8586 4.46589 16.2563 3.89137 15.8202C3.31685 15.384 3.41192 14.403 3.60206 12.4408L3.65124 11.9332C3.70528 11.3756 3.73229 11.0968 3.6519 10.8383C3.57152 10.5798 3.39283 10.3708 3.03544 9.95291L2.71008 9.57244C1.45244 8.10184 0.823616 7.36646 1.04307 6.66081C1.26252 5.95512 2.1849 5.74643 4.02966 5.32903L4.50692 5.22104C5.03115 5.10243 5.29326 5.04313 5.50371 4.88336C5.71417 4.7236 5.84916 4.48146 6.11911 3.99718L6.36488 3.55629Z" fill="#B32B1C" stroke="#B32B1C" stroke-width="2"/>
</svg>
