<svg width="29" height="23" viewBox="0 0 29 23" fill="none" xmlns="http://www.w3.org/2000/svg">
<path d="M18.0714 22H18.8571H19.0714H19.8571H27H28V21V15.3V14.3H27C26.3387 14.3 25.691 14.0211 25.2033 13.5022C24.7136 12.9811 24.4286 12.2619 24.4286 11.5C24.4286 10.7381 24.7136 10.0189 25.2033 9.49785C25.691 8.97893 26.3387 8.7 27 8.7H28V7.7V2V1H27H19.8571H19.0714H18.8571H18.0714H2H1V2V7.7V8.7H2C2.66126 8.7 3.30899 8.97893 3.7967 9.49785C4.28638 10.0189 4.57143 10.7381 4.57143 11.5C4.57143 12.2619 4.28638 12.9811 3.7967 13.5022C3.30899 14.0211 2.66126 14.3 2 14.3H1V15.3V21V22H2H18.0714Z" stroke="white" stroke-width="2"/>
</svg>
